# MagicaVoxel @ Ephtracy

# group
g Character

# material
mtllib Character.mtl
usemtl palette

# normals
vn -1 0 0
vn 1 0 0
vn 0 0 1
vn 0 0 -1
vn 0 -1 0
vn 0 1 0

# texcoords
vt 0.748047 0.5
vt 0.939453 0.5
vt 0.958984 0.5
vt 0.970703 0.5
vt 0.974609 0.5
vt 0.990234 0.5
vt 0.994141 0.5

# verts
v -4 2 -1
v -4 2 -3
v -4 3 -0
v -4 3 -1
v -4 4 1
v -4 4 -0
v -4 4 -2
v -4 4 -3
v -4 5 2
v -4 5 1
v -4 5 -1
v -4 5 -2
v -4 6 2
v -4 6 1
v -4 6 -0
v -4 6 -1
v -4 7 3
v -4 7 2
v -4 7 1
v -4 7 -0
v -4 8 3
v -4 8 2
v -3 0 1
v -3 0 -1
v -3 2 -1
v -3 3 1
v -3 3 -0
v -3 3 -1
v -3 4 1
v -3 4 -0
v -3 6 -0
v -3 6 -1
v -3 7 1
v -3 7 -0
v -3 10 1
v -3 10 -1
v -2 9 -1
v -2 9 -2
v -2 10 -0
v -2 10 -1
v -2 11 -1
v -2 11 -2
v -2 12 1
v -2 12 -0
v -2 13 1
v -2 13 -1
v -1 10 1
v -1 10 -0
v -1 11 -1
v -1 11 -2
v -1 12 1
v -1 12 -0
v -1 13 1
v -1 13 -1
v -1 13 -2
v -1 14 1
v -1 14 -1
v 1 0 1
v 1 0 -1
v 1 3 1
v 1 3 -1
v -3 2 -1
v -3 2 -3
v -3 3 -1
v -3 4 -1
v -3 4 -2
v -3 4 -3
v -3 5 2
v -3 5 1
v -3 5 -1
v -3 5 -2
v -3 6 2
v -3 6 1
v -3 7 3
v -3 7 2
v -3 7 1
v -3 8 3
v -3 8 2
v -1 0 1
v -1 0 -1
v -1 3 1
v -1 3 -1
v 1 10 1
v 1 10 -0
v 1 11 -1
v 1 11 -2
v 1 12 1
v 1 12 -0
v 1 13 1
v 1 13 -1
v 1 13 -2
v 1 14 1
v 1 14 -1
v 2 9 -1
v 2 9 -2
v 2 10 -0
v 2 10 -1
v 2 11 -1
v 2 11 -2
v 2 12 1
v 2 12 -0
v 2 13 1
v 2 13 -1
v 3 0 1
v 3 0 -1
v 3 3 1
v 3 3 -1
v 3 4 1
v 3 4 -1
v 3 10 1
v 3 10 -1
v -4 7 3
v -4 8 3
v -3 7 3
v -3 8 3
v -4 5 2
v -4 6 2
v -4 7 2
v -3 5 2
v -3 6 2
v -3 7 2
v -4 4 1
v -4 5 1
v -3 0 1
v -3 3 1
v -3 4 1
v -3 5 1
v -3 6 1
v -3 7 1
v -3 10 1
v -2 12 1
v -2 13 1
v -1 0 1
v -1 3 1
v -1 10 1
v -1 12 1
v -1 13 1
v -1 14 1
v 0 5 1
v 0 6 1
v 0 7 1
v 1 0 1
v 1 3 1
v 1 6 1
v 1 7 1
v 1 10 1
v 1 12 1
v 1 13 1
v 1 14 1
v 2 7 1
v 2 10 1
v 2 12 1
v 2 13 1
v 3 0 1
v 3 3 1
v 3 4 1
v 3 10 1
v -4 3 -0
v -4 4 -0
v -3 3 -0
v -3 4 -0
v -2 10 -0
v -2 12 -0
v -1 10 -0
v -1 12 -0
v 1 10 -0
v 1 12 -0
v 2 10 -0
v 2 12 -0
v -4 2 -1
v -4 3 -1
v -3 2 -1
v -3 3 -1
v -4 7 2
v -4 8 2
v -3 7 2
v -3 8 2
v -4 6 -0
v -4 7 -0
v -3 6 -0
v -3 7 -0
v -4 5 -1
v -4 6 -1
v -3 0 -1
v -3 2 -1
v -3 3 -1
v -3 4 -1
v -3 5 -1
v -3 6 -1
v -3 10 -1
v -2 9 -1
v -2 10 -1
v -2 11 -1
v -2 13 -1
v -1 0 -1
v -1 3 -1
v -1 5 -1
v -1 6 -1
v -1 7 -1
v -1 11 -1
v -1 13 -1
v -1 14 -1
v 0 6 -1
v 0 7 -1
v 0 8 -1
v 1 0 -1
v 1 3 -1
v 1 7 -1
v 1 8 -1
v 1 9 -1
v 1 11 -1
v 1 13 -1
v 1 14 -1
v 2 8 -1
v 2 9 -1
v 2 10 -1
v 2 11 -1
v 2 13 -1
v 3 0 -1
v 3 3 -1
v 3 4 -1
v 3 10 -1
v -4 4 -2
v -4 5 -2
v -3 4 -2
v -3 5 -2
v -2 9 -2
v -2 11 -2
v -1 11 -2
v -1 13 -2
v 1 11 -2
v 1 13 -2
v 2 9 -2
v 2 11 -2
v -4 2 -3
v -4 4 -3
v -3 2 -3
v -3 4 -3
v -3 0 1
v -1 0 1
v 1 0 1
v 3 0 1
v -3 0 -1
v -1 0 -1
v 1 0 -1
v 3 0 -1
v -4 2 -1
v -3 2 -1
v -4 2 -3
v -3 2 -3
v -1 3 1
v 1 3 1
v -4 3 -0
v -3 3 -0
v -4 3 -1
v -3 3 -1
v -1 3 -1
v 1 3 -1
v -4 4 1
v -3 4 1
v -4 4 -0
v -3 4 -0
v -4 5 2
v -3 5 2
v -4 5 1
v -3 5 1
v -4 7 3
v -3 7 3
v -4 7 2
v -3 7 2
v -2 9 -1
v 1 9 -1
v 2 9 -1
v -2 9 -2
v 2 9 -2
v -2 12 1
v -1 12 1
v 1 12 1
v 2 12 1
v -2 12 -0
v -1 12 -0
v 1 12 -0
v 2 12 -0
v -4 4 -2
v -3 4 -2
v -4 4 -3
v -3 4 -3
v -4 5 -1
v -3 5 -1
v -4 5 -2
v -3 5 -2
v -4 6 -0
v -3 6 -0
v -4 6 -1
v -3 6 -1
v -4 7 2
v -3 7 2
v -4 7 1
v -3 7 1
v -4 7 -0
v -3 7 -0
v -4 8 3
v -3 8 3
v -4 8 2
v -3 8 2
v -3 10 1
v -1 10 1
v 1 10 1
v 2 10 1
v 3 10 1
v -2 10 -0
v -1 10 -0
v 1 10 -0
v 2 10 -0
v -3 10 -1
v -2 10 -1
v 2 10 -1
v 3 10 -1
v -2 11 -1
v -1 11 -1
v 1 11 -1
v 2 11 -1
v -2 11 -2
v -1 11 -2
v 1 11 -2
v 2 11 -2
v -2 13 1
v -1 13 1
v 1 13 1
v 2 13 1
v -2 13 -1
v -1 13 -1
v 1 13 -1
v 2 13 -1
v -1 13 -2
v 1 13 -2
v -1 14 1
v 1 14 1
v -1 14 -1
v 1 14 -1

# faces
f 4/3/1 2/3/1 1/3/1
f 6/3/1 4/3/1 3/3/1
f 7/3/1 2/3/1 4/3/1
f 7/3/1 4/3/1 6/3/1
f 8/3/1 2/3/1 7/3/1
f 10/3/1 6/3/1 5/3/1
f 10/3/1 7/3/1 6/3/1
f 11/3/1 7/3/1 10/3/1
f 12/3/1 7/3/1 11/3/1
f 13/6/1 10/6/1 9/6/1
f 14/3/1 11/3/1 10/3/1
f 14/6/1 10/6/1 13/6/1
f 15/3/1 11/3/1 14/3/1
f 16/3/1 11/3/1 15/3/1
f 18/1/1 14/1/1 13/1/1
f 19/6/1 15/6/1 14/6/1
f 19/1/1 14/1/1 18/1/1
f 20/6/1 15/6/1 19/6/1
f 21/1/1 18/1/1 17/1/1
f 22/1/1 18/1/1 21/1/1
f 25/7/1 24/7/1 23/7/1
f 26/7/1 25/7/1 23/7/1
f 27/7/1 25/7/1 26/7/1
f 28/7/1 25/7/1 27/7/1
f 29/4/1 27/4/1 26/4/1
f 30/4/1 27/4/1 29/4/1
f 34/2/1 32/2/1 31/2/1
f 35/2/1 34/2/1 33/2/1
f 36/2/1 32/2/1 34/2/1
f 36/2/1 34/2/1 35/2/1
f 40/2/1 38/2/1 37/2/1
f 41/2/1 38/2/1 40/2/1
f 41/2/1 40/2/1 39/2/1
f 42/2/1 38/2/1 41/2/1
f 44/2/1 41/2/1 39/2/1
f 45/2/1 44/2/1 43/2/1
f 46/2/1 41/2/1 44/2/1
f 46/2/1 44/2/1 45/2/1
f 51/5/1 48/5/1 47/5/1
f 52/5/1 48/5/1 51/5/1
f 54/2/1 50/2/1 49/2/1
f 55/2/1 50/2/1 54/2/1
f 56/2/1 54/2/1 53/2/1
f 57/2/1 54/2/1 56/2/1
f 60/7/1 59/7/1 58/7/1
f 61/7/1 59/7/1 60/7/1
f 62/3/2 63/3/2 64/3/2
f 64/3/2 63/3/2 65/3/2
f 65/3/2 63/3/2 66/3/2
f 66/3/2 63/3/2 67/3/2
f 65/3/2 66/3/2 70/3/2
f 70/3/2 66/3/2 71/3/2
f 68/6/2 69/6/2 72/6/2
f 72/6/2 69/6/2 73/6/2
f 72/1/2 73/1/2 75/1/2
f 75/1/2 73/1/2 76/1/2
f 74/1/2 75/1/2 77/1/2
f 77/1/2 75/1/2 78/1/2
f 79/7/2 80/7/2 81/7/2
f 81/7/2 80/7/2 82/7/2
f 83/5/2 84/5/2 87/5/2
f 87/5/2 84/5/2 88/5/2
f 85/2/2 86/2/2 90/2/2
f 90/2/2 86/2/2 91/2/2
f 89/2/2 90/2/2 92/2/2
f 92/2/2 90/2/2 93/2/2
f 94/2/2 95/2/2 97/2/2
f 97/2/2 95/2/2 98/2/2
f 96/2/2 97/2/2 98/2/2
f 98/2/2 95/2/2 99/2/2
f 96/2/2 98/2/2 101/2/2
f 100/2/2 101/2/2 102/2/2
f 101/2/2 98/2/2 103/2/2
f 102/2/2 101/2/2 103/2/2
f 104/7/2 105/7/2 106/7/2
f 106/7/2 105/7/2 107/7/2
f 106/4/2 107/4/2 108/4/2
f 108/4/2 107/4/2 109/4/2
f 108/2/2 109/2/2 110/2/2
f 110/2/2 109/2/2 111/2/2
f 114/1/3 113/1/3 112/1/3
f 115/1/3 113/1/3 114/1/3
f 119/6/3 117/6/3 116/6/3
f 120/1/3 118/1/3 117/1/3
f 120/6/3 117/6/3 119/6/3
f 121/1/3 118/1/3 120/1/3
f 126/3/3 123/3/3 122/3/3
f 127/3/3 123/3/3 126/3/3
f 133/7/3 125/7/3 124/7/3
f 134/4/3 126/4/3 125/4/3
f 134/7/3 125/7/3 133/7/3
f 135/2/3 129/2/3 128/2/3
f 135/2/3 130/2/3 129/2/3
f 136/2/3 132/2/3 131/2/3
f 137/2/3 132/2/3 136/2/3
f 139/2/3 127/2/3 126/2/3
f 139/4/3 128/4/3 127/4/3
f 140/2/3 135/2/3 128/2/3
f 140/4/3 128/4/3 139/4/3
f 141/2/3 135/2/3 140/2/3
f 143/4/3 126/4/3 134/4/3
f 144/2/3 140/2/3 139/2/3
f 144/4/3 141/4/3 140/4/3
f 145/2/3 135/2/3 141/2/3
f 145/4/3 141/4/3 144/4/3
f 146/5/3 137/5/3 136/5/3
f 146/2/3 135/2/3 145/2/3
f 146/5/3 136/5/3 135/5/3
f 147/5/3 137/5/3 146/5/3
f 148/2/3 138/2/3 137/2/3
f 148/5/3 137/5/3 147/5/3
f 149/2/3 138/2/3 148/2/3
f 150/2/3 145/2/3 144/2/3
f 150/4/3 146/4/3 145/4/3
f 151/4/3 146/4/3 150/4/3
f 152/2/3 148/2/3 147/2/3
f 153/2/3 148/2/3 152/2/3
f 154/7/3 143/7/3 142/7/3
f 155/4/3 126/4/3 143/4/3
f 155/7/3 143/7/3 154/7/3
f 156/2/3 139/2/3 126/2/3
f 156/4/3 126/4/3 155/4/3
f 156/2/3 151/2/3 150/2/3
f 156/2/3 144/2/3 139/2/3
f 156/2/3 150/2/3 144/2/3
f 157/2/3 151/2/3 156/2/3
f 160/3/3 159/3/3 158/3/3
f 161/3/3 159/3/3 160/3/3
f 164/2/3 163/2/3 162/2/3
f 165/2/3 163/2/3 164/2/3
f 168/2/3 167/2/3 166/2/3
f 169/2/3 167/2/3 168/2/3
f 172/3/3 171/3/3 170/3/3
f 173/3/3 171/3/3 172/3/3
f 174/1/4 175/1/4 176/1/4
f 176/1/4 175/1/4 177/1/4
f 178/6/4 179/6/4 180/6/4
f 180/6/4 179/6/4 181/6/4
f 182/3/4 183/3/4 188/3/4
f 188/3/4 183/3/4 189/3/4
f 189/2/4 190/2/4 191/2/4
f 191/2/4 190/2/4 192/2/4
f 184/7/4 185/7/4 195/7/4
f 185/7/4 186/7/4 195/7/4
f 186/4/4 187/4/4 196/4/4
f 195/7/4 186/7/4 196/7/4
f 187/2/4 188/2/4 197/2/4
f 188/4/4 189/4/4 197/4/4
f 189/2/4 191/2/4 198/2/4
f 197/4/4 189/4/4 198/4/4
f 198/2/4 191/2/4 199/2/4
f 193/2/4 194/2/4 200/2/4
f 200/2/4 194/2/4 201/2/4
f 197/2/4 198/2/4 203/2/4
f 198/4/4 199/4/4 203/4/4
f 199/2/4 191/2/4 204/2/4
f 203/4/4 199/4/4 204/4/4
f 204/2/4 191/2/4 205/2/4
f 196/4/4 187/4/4 207/4/4
f 203/2/4 204/2/4 208/2/4
f 204/4/4 205/4/4 208/4/4
f 205/2/4 191/2/4 209/2/4
f 208/4/4 205/4/4 209/4/4
f 209/2/4 191/2/4 210/2/4
f 201/2/4 202/2/4 212/2/4
f 212/2/4 202/2/4 213/2/4
f 209/4/4 210/4/4 214/4/4
f 208/2/4 209/2/4 214/2/4
f 214/4/4 210/4/4 215/4/4
f 211/2/4 212/2/4 217/2/4
f 217/2/4 212/2/4 218/2/4
f 206/7/4 207/7/4 219/7/4
f 207/4/4 187/4/4 220/4/4
f 219/7/4 207/7/4 220/7/4
f 197/2/4 203/2/4 221/2/4
f 220/4/4 187/4/4 221/4/4
f 187/2/4 197/2/4 221/2/4
f 203/2/4 208/2/4 221/2/4
f 214/2/4 215/2/4 221/2/4
f 208/2/4 214/2/4 221/2/4
f 215/2/4 216/2/4 221/2/4
f 221/2/4 216/2/4 222/2/4
f 223/3/4 224/3/4 225/3/4
f 225/3/4 224/3/4 226/3/4
f 227/2/4 228/2/4 229/2/4
f 227/2/4 229/2/4 231/2/4
f 229/2/4 230/2/4 231/2/4
f 231/2/4 230/2/4 232/2/4
f 227/2/4 231/2/4 233/2/4
f 233/2/4 231/2/4 234/2/4
f 235/3/4 236/3/4 237/3/4
f 237/3/4 236/3/4 238/3/4
f 243/7/5 240/7/5 239/7/5
f 244/7/5 240/7/5 243/7/5
f 245/7/5 242/7/5 241/7/5
f 246/7/5 242/7/5 245/7/5
f 249/3/5 248/3/5 247/3/5
f 250/3/5 248/3/5 249/3/5
f 255/3/5 254/3/5 253/3/5
f 256/3/5 254/3/5 255/3/5
f 257/4/5 252/4/5 251/4/5
f 258/4/5 252/4/5 257/4/5
f 261/3/5 260/3/5 259/3/5
f 262/3/5 260/3/5 261/3/5
f 265/6/5 264/6/5 263/6/5
f 266/6/5 264/6/5 265/6/5
f 269/1/5 268/1/5 267/1/5
f 270/1/5 268/1/5 269/1/5
f 274/2/5 272/2/5 271/2/5
f 274/2/5 273/2/5 272/2/5
f 275/2/5 273/2/5 274/2/5
f 280/2/5 277/2/5 276/2/5
f 281/2/5 277/2/5 280/2/5
f 282/2/5 279/2/5 278/2/5
f 283/2/5 279/2/5 282/2/5
f 284/3/6 285/3/6 286/3/6
f 286/3/6 285/3/6 287/3/6
f 288/3/6 289/3/6 290/3/6
f 290/3/6 289/3/6 291/3/6
f 292/3/6 293/3/6 294/3/6
f 294/3/6 293/3/6 295/3/6
f 296/1/6 297/1/6 298/1/6
f 298/1/6 297/1/6 299/1/6
f 298/6/6 299/6/6 300/6/6
f 300/6/6 299/6/6 301/6/6
f 302/1/6 303/1/6 304/1/6
f 304/1/6 303/1/6 305/1/6
f 306/2/6 307/2/6 311/2/6
f 311/2/6 307/2/6 312/2/6
f 308/4/6 309/4/6 313/4/6
f 309/2/6 310/2/6 314/2/6
f 313/4/6 309/4/6 314/4/6
f 306/2/6 311/2/6 315/2/6
f 315/2/6 311/2/6 316/2/6
f 314/2/6 310/2/6 317/2/6
f 317/2/6 310/2/6 318/2/6
f 319/2/6 320/2/6 323/2/6
f 323/2/6 320/2/6 324/2/6
f 321/2/6 322/2/6 325/2/6
f 325/2/6 322/2/6 326/2/6
f 327/2/6 328/2/6 331/2/6
f 331/2/6 328/2/6 332/2/6
f 329/2/6 330/2/6 333/2/6
f 333/2/6 330/2/6 334/2/6
f 332/2/6 333/2/6 335/2/6
f 335/2/6 333/2/6 336/2/6
f 337/2/6 338/2/6 339/2/6
f 339/2/6 338/2/6 340/2/6
