# MagicaVoxel @ Ephtracy

# group
g Merchant

# material
mtllib Merchant.mtl
usemtl palette

# normals
vn -1 0 0
vn 1 0 0
vn 0 0 1
vn 0 0 -1
vn 0 -1 0
vn 0 1 0

# texcoords
vt 0.970703 0.5
vt 0.974609 0.5
vt 0.978516 0.5
vt 0.982422 0.5
vt 0.986328 0.5

# verts
v -3 0 1
v -3 0 -1
v -3 2 1
v -3 2 -1
v -3 3 1
v -3 3 -1
v -3 5 1
v -3 5 -1
v -3 10 1
v -3 10 -1
v -2 4 2
v -2 4 1
v -2 5 2
v -2 5 1
v -2 8 2
v -2 8 1
v -2 8 -1
v -2 8 -2
v -2 10 -0
v -2 10 -1
v -2 12 1
v -2 12 -0
v -2 13 1
v -2 13 -2
v -1 10 1
v -1 10 -0
v -1 12 1
v -1 12 -0
v -1 13 1
v -1 13 -1
v -1 14 1
v -1 14 -1
v 1 0 1
v 1 0 -1
v 1 2 1
v 1 2 -1
v 1 3 1
v 1 3 -1
v -1 0 1
v -1 0 -1
v -1 2 1
v -1 2 -1
v -1 3 1
v -1 3 -1
v 1 10 1
v 1 10 -0
v 1 12 1
v 1 12 -0
v 1 13 1
v 1 13 -1
v 1 14 1
v 1 14 -1
v 2 4 2
v 2 4 1
v 2 7 2
v 2 7 1
v 2 8 2
v 2 8 1
v 2 8 -1
v 2 8 -2
v 2 9 -1
v 2 10 -0
v 2 10 -1
v 2 12 1
v 2 12 -0
v 2 13 1
v 2 13 -2
v 3 0 1
v 3 0 -1
v 3 2 1
v 3 2 -1
v 3 3 1
v 3 3 -1
v 3 4 1
v 3 4 -1
v 3 9 1
v 3 9 -1
v 3 10 1
v 3 10 -1
v -2 4 2
v -2 5 2
v -2 8 2
v -1 4 2
v -1 5 2
v -1 6 2
v 0 5 2
v 0 6 2
v 0 7 2
v 1 6 2
v 1 7 2
v 1 8 2
v 2 4 2
v 2 7 2
v 2 8 2
v -3 0 1
v -3 2 1
v -3 3 1
v -3 5 1
v -3 10 1
v -2 4 1
v -2 5 1
v -2 8 1
v -2 12 1
v -2 13 1
v -1 0 1
v -1 2 1
v -1 3 1
v -1 4 1
v -1 10 1
v -1 12 1
v -1 13 1
v -1 14 1
v 1 0 1
v 1 2 1
v 1 3 1
v 1 8 1
v 1 9 1
v 1 10 1
v 1 12 1
v 1 13 1
v 1 14 1
v 2 4 1
v 2 7 1
v 2 8 1
v 2 9 1
v 2 10 1
v 2 12 1
v 2 13 1
v 3 0 1
v 3 2 1
v 3 3 1
v 3 4 1
v 3 9 1
v 3 10 1
v -2 10 -0
v -2 12 -0
v -1 10 -0
v -1 12 -0
v 1 10 -0
v 1 12 -0
v 2 10 -0
v 2 12 -0
v -3 0 -1
v -3 2 -1
v -3 3 -1
v -3 5 -1
v -3 10 -1
v -2 4 -1
v -2 5 -1
v -2 6 -1
v -2 8 -1
v -2 10 -1
v -1 0 -1
v -1 2 -1
v -1 3 -1
v -1 5 -1
v -1 6 -1
v -1 7 -1
v -1 13 -1
v -1 14 -1
v 0 6 -1
v 0 7 -1
v 0 8 -1
v 1 0 -1
v 1 2 -1
v 1 3 -1
v 1 7 -1
v 1 8 -1
v 1 13 -1
v 1 14 -1
v 2 8 -1
v 2 9 -1
v 2 10 -1
v 3 0 -1
v 3 2 -1
v 3 3 -1
v 3 4 -1
v 3 9 -1
v 3 10 -1
v -2 8 -2
v -2 13 -2
v 2 8 -2
v 2 13 -2
v -3 0 1
v -1 0 1
v 1 0 1
v 3 0 1
v -3 0 -1
v -1 0 -1
v 1 0 -1
v 3 0 -1
v -1 3 1
v 1 3 1
v -1 3 -1
v 1 3 -1
v -2 4 2
v -1 4 2
v 2 4 2
v -2 4 1
v -1 4 1
v 2 4 1
v -2 8 -1
v 0 8 -1
v 1 8 -1
v 2 8 -1
v -2 8 -2
v 2 8 -2
v -2 12 1
v -1 12 1
v 1 12 1
v 2 12 1
v -2 12 -0
v -1 12 -0
v 1 12 -0
v 2 12 -0
v -2 8 2
v 1 8 2
v 2 8 2
v -2 8 1
v 1 8 1
v 2 8 1
v -3 10 1
v -1 10 1
v 1 10 1
v 2 10 1
v 3 10 1
v -2 10 -0
v -1 10 -0
v 1 10 -0
v 2 10 -0
v -3 10 -1
v -2 10 -1
v 2 10 -1
v 3 10 -1
v -2 13 1
v -1 13 1
v 1 13 1
v 2 13 1
v -1 13 -1
v 1 13 -1
v -2 13 -2
v 2 13 -2
v -1 14 1
v 1 14 1
v -1 14 -1
v 1 14 -1

# faces
f 3/1/1 2/1/1 1/1/1
f 4/1/1 2/1/1 3/1/1
f 5/5/1 4/5/1 3/5/1
f 6/5/1 4/5/1 5/5/1
f 7/2/1 6/2/1 5/2/1
f 8/2/1 6/2/1 7/2/1
f 9/4/1 8/4/1 7/4/1
f 10/4/1 8/4/1 9/4/1
f 13/2/1 12/2/1 11/2/1
f 14/2/1 12/2/1 13/2/1
f 15/4/1 14/4/1 13/4/1
f 16/4/1 14/4/1 15/4/1
f 20/1/1 18/1/1 17/1/1
f 22/1/1 20/1/1 19/1/1
f 23/1/1 22/1/1 21/1/1
f 24/1/1 18/1/1 20/1/1
f 24/1/1 22/1/1 23/1/1
f 24/1/1 20/1/1 22/1/1
f 27/3/1 26/3/1 25/3/1
f 28/3/1 26/3/1 27/3/1
f 31/1/1 30/1/1 29/1/1
f 32/1/1 30/1/1 31/1/1
f 35/1/1 34/1/1 33/1/1
f 36/1/1 34/1/1 35/1/1
f 37/5/1 36/5/1 35/5/1
f 38/5/1 36/5/1 37/5/1
f 39/1/2 40/1/2 41/1/2
f 41/1/2 40/1/2 42/1/2
f 41/5/2 42/5/2 43/5/2
f 43/5/2 42/5/2 44/5/2
f 45/3/2 46/3/2 47/3/2
f 47/3/2 46/3/2 48/3/2
f 49/1/2 50/1/2 51/1/2
f 51/1/2 50/1/2 52/1/2
f 53/4/2 54/4/2 55/4/2
f 55/4/2 54/4/2 56/4/2
f 55/2/2 56/2/2 57/2/2
f 57/2/2 56/2/2 58/2/2
f 59/1/2 60/1/2 61/1/2
f 61/1/2 60/1/2 63/1/2
f 62/1/2 63/1/2 65/1/2
f 64/1/2 65/1/2 66/1/2
f 63/1/2 60/1/2 67/1/2
f 66/1/2 65/1/2 67/1/2
f 65/1/2 63/1/2 67/1/2
f 68/1/2 69/1/2 70/1/2
f 70/1/2 69/1/2 71/1/2
f 70/5/2 71/5/2 72/5/2
f 72/5/2 71/5/2 73/5/2
f 72/2/2 73/2/2 74/2/2
f 74/2/2 73/2/2 75/2/2
f 74/4/2 75/4/2 76/4/2
f 76/4/2 75/4/2 77/4/2
f 76/2/2 77/2/2 78/2/2
f 78/2/2 77/2/2 79/2/2
f 83/2/3 81/2/3 80/2/3
f 84/4/3 82/4/3 81/4/3
f 84/2/3 81/2/3 83/2/3
f 85/4/3 82/4/3 84/4/3
f 86/4/3 84/4/3 83/4/3
f 86/2/3 85/2/3 84/2/3
f 87/4/3 82/4/3 85/4/3
f 87/2/3 85/2/3 86/2/3
f 88/4/3 82/4/3 87/4/3
f 89/4/3 87/4/3 86/4/3
f 89/2/3 88/2/3 87/2/3
f 90/4/3 82/4/3 88/4/3
f 90/2/3 88/2/3 89/2/3
f 91/4/3 82/4/3 90/4/3
f 92/4/3 86/4/3 83/4/3
f 92/4/3 89/4/3 86/4/3
f 92/4/3 90/4/3 89/4/3
f 93/2/3 91/2/3 90/2/3
f 93/4/3 90/4/3 92/4/3
f 94/2/3 91/2/3 93/2/3
f 100/2/3 98/2/3 97/2/3
f 101/4/3 99/4/3 98/4/3
f 101/2/3 98/2/3 100/2/3
f 102/4/3 99/4/3 101/4/3
f 105/1/3 96/1/3 95/1/3
f 106/5/3 97/5/3 96/5/3
f 106/1/3 96/1/3 105/1/3
f 107/2/3 100/2/3 97/2/3
f 107/5/3 97/5/3 106/5/3
f 108/2/3 100/2/3 107/2/3
f 109/4/3 99/4/3 102/4/3
f 110/1/3 104/1/3 103/1/3
f 111/1/3 104/1/3 110/1/3
f 115/2/3 108/2/3 107/2/3
f 116/4/3 109/4/3 102/4/3
f 117/4/3 109/4/3 116/4/3
f 118/3/3 111/3/3 110/3/3
f 118/4/3 109/4/3 117/4/3
f 118/3/3 110/3/3 109/3/3
f 119/3/3 111/3/3 118/3/3
f 120/1/3 112/1/3 111/1/3
f 120/3/3 111/3/3 119/3/3
f 121/1/3 112/1/3 120/1/3
f 122/2/3 108/2/3 115/2/3
f 124/2/3 117/2/3 116/2/3
f 125/4/3 118/4/3 117/4/3
f 125/2/3 117/2/3 124/2/3
f 126/4/3 118/4/3 125/4/3
f 127/1/3 120/1/3 119/1/3
f 128/1/3 120/1/3 127/1/3
f 129/1/3 114/1/3 113/1/3
f 130/5/3 115/5/3 114/5/3
f 130/1/3 114/1/3 129/1/3
f 131/2/3 122/2/3 115/2/3
f 131/5/3 115/5/3 130/5/3
f 132/4/3 123/4/3 122/4/3
f 132/2/3 122/2/3 131/2/3
f 132/4/3 124/4/3 123/4/3
f 132/4/3 125/4/3 124/4/3
f 133/2/3 126/2/3 125/2/3
f 133/4/3 125/4/3 132/4/3
f 134/2/3 126/2/3 133/2/3
f 137/1/3 136/1/3 135/1/3
f 138/1/3 136/1/3 137/1/3
f 141/1/3 140/1/3 139/1/3
f 142/1/3 140/1/3 141/1/3
f 145/2/4 146/2/4 148/2/4
f 146/4/4 147/4/4 149/4/4
f 148/2/4 146/2/4 149/2/4
f 149/4/4 147/4/4 150/4/4
f 150/4/4 147/4/4 151/4/4
f 151/4/4 147/4/4 152/4/4
f 143/1/4 144/1/4 153/1/4
f 144/5/4 145/5/4 154/5/4
f 153/1/4 144/1/4 154/1/4
f 145/2/4 148/2/4 155/2/4
f 154/5/4 145/5/4 155/5/4
f 148/4/4 149/4/4 156/4/4
f 149/2/4 150/2/4 156/2/4
f 150/4/4 151/4/4 157/4/4
f 156/2/4 150/2/4 157/2/4
f 157/4/4 151/4/4 158/4/4
f 157/2/4 158/2/4 161/2/4
f 156/4/4 157/4/4 161/4/4
f 158/4/4 151/4/4 162/4/4
f 161/2/4 158/2/4 162/2/4
f 162/4/4 151/4/4 163/4/4
f 155/2/4 148/2/4 166/2/4
f 161/4/4 162/4/4 167/4/4
f 162/2/4 163/2/4 167/2/4
f 167/2/4 163/2/4 168/2/4
f 159/1/4 160/1/4 169/1/4
f 169/1/4 160/1/4 170/1/4
f 167/4/4 168/4/4 171/4/4
f 164/1/4 165/1/4 174/1/4
f 165/5/4 166/5/4 175/5/4
f 174/1/4 165/1/4 175/1/4
f 166/2/4 148/2/4 176/2/4
f 175/5/4 166/5/4 176/5/4
f 156/4/4 161/4/4 177/4/4
f 176/2/4 148/2/4 177/2/4
f 148/4/4 156/4/4 177/4/4
f 171/4/4 172/4/4 177/4/4
f 167/4/4 171/4/4 177/4/4
f 161/4/4 167/4/4 177/4/4
f 172/2/4 173/2/4 178/2/4
f 177/4/4 172/4/4 178/4/4
f 178/2/4 173/2/4 179/2/4
f 180/1/4 181/1/4 182/1/4
f 182/1/4 181/1/4 183/1/4
f 188/1/5 185/1/5 184/1/5
f 189/1/5 185/1/5 188/1/5
f 190/1/5 187/1/5 186/1/5
f 191/1/5 187/1/5 190/1/5
f 194/2/5 193/2/5 192/2/5
f 195/2/5 193/2/5 194/2/5
f 199/2/5 197/2/5 196/2/5
f 200/4/5 198/4/5 197/4/5
f 200/2/5 197/2/5 199/2/5
f 201/4/5 198/4/5 200/4/5
f 206/1/5 203/1/5 202/1/5
f 206/1/5 205/1/5 204/1/5
f 206/1/5 204/1/5 203/1/5
f 207/1/5 205/1/5 206/1/5
f 212/1/5 209/1/5 208/1/5
f 213/1/5 209/1/5 212/1/5
f 214/1/5 211/1/5 210/1/5
f 215/1/5 211/1/5 214/1/5
f 216/4/6 217/4/6 219/4/6
f 217/2/6 218/2/6 220/2/6
f 219/4/6 217/4/6 220/4/6
f 220/2/6 218/2/6 221/2/6
f 222/4/6 223/4/6 227/4/6
f 227/4/6 223/4/6 228/4/6
f 224/4/6 225/4/6 229/4/6
f 225/2/6 226/2/6 230/2/6
f 229/4/6 225/4/6 230/4/6
f 222/4/6 227/4/6 231/4/6
f 231/4/6 227/4/6 232/4/6
f 230/2/6 226/2/6 233/2/6
f 233/2/6 226/2/6 234/2/6
f 235/1/6 236/1/6 239/1/6
f 237/1/6 238/1/6 240/1/6
f 235/1/6 239/1/6 241/1/6
f 239/1/6 240/1/6 241/1/6
f 240/1/6 238/1/6 242/1/6
f 241/1/6 240/1/6 242/1/6
f 243/1/6 244/1/6 245/1/6
f 245/1/6 244/1/6 246/1/6
